<?xml version="1.0" encoding="UTF-8"?>
<svg id="Layer_1" xmlns="http://www.w3.org/2000/svg" xmlns:xlink="http://www.w3.org/1999/xlink" version="1.1" viewBox="0 0 512 512">
  <!-- Generator: Adobe Illustrator 29.2.0, SVG Export Plug-In . SVG Version: 2.1.0 Build 108)  -->
  <defs>
    <style>
      .st0 {
        fill: url(#linear-gradient1);
      }

      .st1 {
        fill: #641b39;
      }

      .st2 {
        fill: #f5b08b;
      }

      .st3 {
        fill: url(#linear-gradient);
      }

      .st4 {
        fill: #f5c898;
      }

      .st5 {
        fill: #fff;
      }

      .st6 {
        fill: #ff578b;
      }

      .st7 {
        fill: #9d1f49;
      }

      .st8 {
        fill: #40220f;
      }

      .st9 {
        opacity: .2;
      }

      .st10 {
        fill: #f8c8b9;
      }

      .st11 {
        fill: #fde6cb;
      }
    </style>
    <linearGradient id="linear-gradient" x1="362.5" y1="483.9" x2="362.5" y2="330.3" gradientUnits="userSpaceOnUse">
      <stop offset="0" stop-color="#e2ebff" stop-opacity="0"/>
      <stop offset="1" stop-color="#e2ebff"/>
    </linearGradient>
    <linearGradient id="linear-gradient1" x1="122.4" y1="483.9" x2="122.4" y2="293.7" gradientUnits="userSpaceOnUse">
      <stop offset="0" stop-color="#b7bade" stop-opacity="0"/>
      <stop offset="1" stop-color="#b7bade"/>
    </linearGradient>
  </defs>
  <g id="_圖層_5" data-name="圖層_5">
    <path class="st3" d="M326.7,330.3l56.3.8s87.9,15.5,76.8,152.9h-195.4s-4-141.3,62.3-153.7h0Z"/>
    <path class="st1" d="M473.4,224.1s-6.2,41.2,1,55.6c0,0,17.8,32.4-1.6,59.2,0,0-6.6,26,15.6,50.5,0,0,38.1,69.3-27.6,72.2l-62.7-113.5,24.5-79,50.9-44.9Z"/>
    <path class="st11" d="M409.4,256.9s-54.1,33.5-26.4,74.1c0,0-10.2,17-29,17s-27.3-17.8-27.3-17.8c0,0,6.3-47.7-11.3-45.4l62.8-33.4,31.2,5.6Z"/>
    <path class="st1" d="M335.7,111.3s-39.3-28.2-69,6.3c0,0-27.6,33.1,24.5,45.8l44.5-52.2Z"/>
    <path class="st11" d="M258.6,190.5c-30.5,94.3-1,103.8,56.8,94.3,28.5-4.7,35.6-5,63.8-10.9,26.9-5.6,64.8-.2,72.6-28.2,15.6-55.9-17.1-113.8-73-129.4,0,0,0,0,0,0-41.9-11.7-77-5.1-102.4,26.9-8.5,10.7-13.4,33.7-17.8,47.2h0Z"/>
    <path class="st1" d="M293,118.7s-11.6,44.3,33.3,65.7c0,0-7.8-23.3-4.6-38.4,0,0-.5,46.1,33.6,67.9s16.7,66.9,31.5,71.8c18.4,6.1,61.1-4.3,73.2-21.5,20-28.3,25-87-27.4-140-16.1-16.2-36.9-27.3-59.5-30.5-22.1-3.2-49.2.2-68.7,26.1"/>
    <path class="st11" d="M398,228.1c1,13.2-8.8,24.7-22,25.8-13.2,1-33.3-8-34.4-21.2s17.4-25.6,30.6-26.6c13.2-1,24.7,8.8,25.8,22h0Z"/>
    <path class="st7" d="M271.6,241.3c-.1,0-.3.2-.4.2l-.5.3-.4.2c.4-.2,0,0,0,0-1.4.5-2.8.8-4.2.9-5.5.2-9.9-3.2-13.3-7.2-1.3-1.6-3.6.7-2.2,2.2,3.8,4.6,9.2,8.3,15.4,8.1,2.6,0,5.2-.7,7.4-2,1.7-1.1.1-3.9-1.6-2.7h0Z"/>
    <path class="st11" d="M247.4,202.7c-1,4,1.5,8,5.5,9,3.8.9,7.7-1.3,8.9-5,1.1-4,.8-15-3.2-16.1,0,0-10.1,8.2-11.2,12.1h0Z"/>
    <path class="st8" d="M285.2,159.3c13.1,1.3,24.7,11.7,27.1,24.7.4,1.9,3.5,1.7,3.1-.2-2.6-14.3-15-26.1-29.6-27.6-2-.2-2.6,2.9-.6,3.1h0Z"/>
    <ellipse class="st10" cx="296.4" cy="224.2" rx="14.1" ry="22.8" transform="translate(1 449.6) rotate(-74.4)"/>
    <path class="st1" d="M391.4,286.9s-6.4-.3-6.1,6.8c0,0-21.3-11.3-17.9-40.3l24,33.5Z"/>
    <path class="st8" d="M275,186.1s2.5,23,26.4,17.8c0,0,.6-1.3-.9-1.2,0,0-16.3,1.9-22.3-17.1,0,0-.1-1.2-1.7-1.2-.9,0-1.5.8-1.5,1.7h0Z"/>
    <path class="st0" d="M96.4,293.7l56.3,1s38,5.4,59.6,35.6c19.2,26.9,22.5,73.6,17.2,153.7H15.3s-10.9-97.9,15.7-153.7c9-18.8,48.7-32.7,65.4-36.6Z"/>
    <path class="st1" d="M367.4,253.3c-.7,7.4-1.8,14.8-3.3,22.1-2.5,12-6.8,25.9-22.6,46.1,0,0-57.5,93.8,13.2,135.7,0,0,10,10.8,1.4,18.8,0,0,76.7-29.7,65-124.4,0,0-4.4-68.9,17.3-78.1l-70.9-20.2Z"/>
    <path class="st1" d="M56.7,99.2c-14.4-31.3,6.1-43.2,21.2-54.6s43.7-15.1,61.8-9.9c6.2,1.8,12.1,4.6,18.5,5.8,11.3,2,22.8-1.3,34.3-1.9s24.8,2.8,29.6,13.3c2.6,5.5-1.1,13.1,2.6,17.9,39.9,52.8-.5,52.2-7.7,73.1"/>
    <path class="st4" d="M83.3,221.3s21.5,38.2,12.8,74.7c0,0,14,17.7,32.8,17.7s27.2-17.7,27.2-17.7c0,0-7-26.4,10.4-22.9l-61.7-55.6-21.5,3.8Z"/>
    <path class="st4" d="M226.5,186.6c1.2,98.3-39.5,101.7-91,86.4-27.6-8.2-31.7-26.9-52.2-45.1s-28.4-45.5-26.2-74.3c4.5-57.5,24.8-81.8,82.4-77.3,43.2,3.4,73.7,21.4,86.6,60,4.3,12.9.3,36.1.5,50.2Z"/>
    <path class="st1" d="M210.9,74.9c-45.8-29.7-110.8-10.2-110.8-10.2-33.3,6.7-43.4,20.4-43.4,34.6,0,0-38,9.5-21.6,85.3,9.3,43.2,39.1,47.4,39.1,47.4,34.4,0,52.6-85.3,52.6-85.3,47.2,3.1,39.6-23.9,39.6-23.9,0,0,54.8,12.8,46.8-22.8,0,0,13.6-14.7-2.4-25h0Z"/>
    <path class="st4" d="M83.5,174.2c-5.5,12-.2,26.1,11.8,31.6,0,0,0,0,0,0,12,5.5,33.9,3.9,39.3-8.1,5.5-12-7.5-29.8-19.5-35.3-12-5.5-26.1-.2-31.6,11.8Z"/>
    <path class="st7" d="M194.6,231.4c1.7,2.1,3.9,3.7,6.4,4.6,5.8,2.3,12,.6,17.2-2.4.8-.4,1-1.4.6-2.2s-1.4-1-2.2-.6c-4.5,2.6-9.8,4.1-14.8,2-.7-.3-1.4-.7-2-1.1-.5-.3-.9-.6-1.4-1-.3-.3-.7-.6-1-1-.1-.2-.6-.8-.1-.1-.5-.7-1.4-1-2.2-.6-.8.4-1,1.4-.6,2.2,0,0,0,0,0,0h0Z"/>
    <path class="st4" d="M232.9,201.7c-.5,4.1-4.2,6.9-8.3,6.4-3.8-.5-6.6-3.7-6.5-7.5.3-4.1,4.4-14.3,8.4-14,0,0,6.6,11.1,6.3,15.1Z"/>
    <path class="st1" d="M67.7,229.9c5.4,1.7,10.6,3.9,15.7,6.5,2.9,1.5,6.4.3,7.9-2.6.3-.6.5-1.3.6-2,.2-2.1.6-4.1,1.2-6.1,2-5.5,9.9-9.6,10.9-17.4l-36.3,21.6Z"/>
    <ellipse class="st2" cx="179.9" cy="201.2" rx="10.6" ry="22.7" transform="translate(-34.7 364.8) rotate(-85.5)"/>
    <path class="st8" d="M179,154.2s14.9-16.9,36.7-12c.3,0,1.2.5,1.3.8.2,1.3-1.1,4.2-16.5,5.2,0,0-12.4.8-20.4,7.4-.3.2-.6.4-1,.4-.7,0-1.3-.4-.2-1.9h0Z"/>
    <path class="st8" d="M214.8,170.9s-12,18.3-29.8,3.6c0,0,0-1.4,1.3-.6,0,0,12.9,8.6,26.1-4.8.5-.6,1.3-.7,1.9-.3.7.4.9,1.4.5,2.1Z"/>
    <path class="st1" d="M121.4,166.5s26.4,12.3,21-19.6l-13.3-31.6-7.7,51.2Z"/>
    <path class="st1" d="M56.7,75.8c-13.3,3.8-18.8,0-31,6.7-6.6,3.6-10,11.1-11.8,18.4-2.3,9.3-2.2,20.6,5,26.9,2,1.7,4.5,3.1,5.8,5.4.9,2,1.1,4.2.8,6.3-.6,6.8-1,13.8-3,20.3-8.6,29,2.4,58.4,22.9,57.9,0,0,7.8.6,11.3,5.4l26.5-88.9-26.5-58.6Z"/>
    <g class="st9">
      <path class="st5" d="M359.3,100.6s19.9,35.2,68.9,36.7c0,0-41.7,13.9-90.6-31.8,0,0,11.3-6.2,21.6-4.8h0Z"/>
    </g>
    <g class="st9">
      <path class="st5" d="M148.5,49.2s-19.9,35.2-68.9,36.7c0,0,41.7,13.9,90.6-31.8,0,0-11.3-6.2-21.7-4.8Z"/>
    </g>
    <path class="st6" d="M259.8,92.1s-32.6-64-6.5-64c0,0,18.9-1.4,18.9,21.4,0,0,14.3-25.7,32.2-13,0,0,25.1,10.5-44.6,55.6h0Z"/>
  </g>
</svg>