<svg id="Layer_1" enable-background="new 0 0 66 66" viewBox="0 0 66 66" xmlns="http://www.w3.org/2000/svg"><g><g><path d="m34.6 39.24c-.01.04-.03.09-.04.12-.95 2.66-2.51 4.94-4.45 6.72-.07.07-.13.12-.2.18-1.59 1.43-3.43 2.53-5.41 3.26-2.75 1.02-5.78 1.33-8.79.79-.3-.05-.59.11-.69.39l-1.12 3.14c-.13.36.06.76.42.89l2.46.88 1.94.69c.37.13.56.53.42.89l-1.24 3.45c-.13.37-.53.55-.89.42l-4.4-1.58c-.37-.13-.76.06-.89.42l-1.29 3.6c-.13.36-.53.55-.9.42l-3.03-1.09c-.36-.13-.55-.53-.42-.89l1.28-3.6c.14-.34-.05-.74-.41-.87l-4.41-1.57c-.29-.1-.46-.38-.46-.67 0-.07.01-.15.04-.22l1.24-3.45c.12-.37.52-.55.89-.42l4.41 1.58c.37.12.76-.07.9-.42l1.12-3.13c.1-.29-.02-.6-.29-.75-6.48-3.63-9.87-11.14-8.24-18.42.15-.68.34-1.35.58-2.02.86-2.39 2.2-4.47 3.87-6.16 2.02-2.05 4.53-3.54 7.26-4.35l.42 5.47c-2.95 1.2-5.4 3.6-6.56 6.83-2.16 6.03.98 12.67 7.01 14.83 3.16 1.13 6.5.8 9.26-.65.44-.24.88-.5 1.29-.79.05-.03.1-.07.15-.1 1.16-.84 2.18-1.9 2.97-3.15.46-.71.84-1.49 1.14-2.33.67-1.87.83-3.8.55-5.63l5.16-1.27c.53 2.76.35 5.7-.65 8.56z" fill="#fa778d"/></g><g><path d="m19.14 57.2-1.24 3.45c-.13.37-.53.55-.89.42l-4.4-1.58c-.37-.13-.76.06-.89.42l-1.29 3.6c-.13.36-.53.55-.9.42l-3.03-1.09c-.36-.13-.55-.53-.42-.89l1.28-3.6c.14-.35-.05-.75-.41-.88l-4.41-1.57c-.29-.1-.46-.38-.46-.67.83.63 2.07.76 2.98.24.59-.34 1.13-.94 1.82-.89.63.05 1.07.62 1.45 1.12.38.51.9 1.05 1.52.97.86-.1 1.35-1.31 2.22-1.23.67.07.97.84 1.43 1.33.63.65 1.76.75 2.5.22.44-.32.71-.84.77-1.37l1.94.69c.37.13.56.53.43.89z" fill="#ef6280"/></g><g><path d="m8.15 24.02c-.47.3-1.16-.15-1.64.14-.31.2-.37.63-.3.99.08.36.25.69.31 1.05.06.37-.06.8-.39.94s-.75-.05-1.06.14c-.19.11-.28.33-.29.55s.06.43.12.63c.18.52.39 1.04.38 1.58s-.32 1.13-.85 1.26c-.52.14-1.03-.2-1.44-.54-.29-.23-.57-.48-.84-.76.15-.68.34-1.35.58-2.02.86-2.39 2.2-4.47 3.87-6.16.41.12.79.31 1.14.55.28.2.54.43.65.75.12.31.05.72-.24.9z" fill="#ef6280"/></g><g><path d="m4.66 33.43c-.56 0-1.15-.15-1.73-.43-.39-.2-.79-.45-1.25-.81-.11-.08-.13-.24-.04-.34.08-.11.24-.13.34-.04.43.34.81.58 1.17.76.78.38 1.57.48 2.23.27.73-.23 1.28-.91 1.27-1.58 0-.27-.08-.54-.17-.82-.05-.18-.11-.36-.14-.55-.1-.52-.02-1.23.53-1.55.11-.06.23-.1.34-.14.12-.04.23-.07.3-.13.25-.19.14-.68.05-.96-.12-.39-.32-1.04.07-1.49.22-.26.59-.38 1.06-.35.1.01.2.02.3.03.2.02.39.05.57.02.57-.09.91-.72.9-1.25-.01-.68-.45-1.24-.82-1.59-.64-.62-1.48-1-2.36-1.09-.13-.01-.23-.13-.22-.26s.11-.23.24-.23c1.02.1 1.96.53 2.68 1.21.44.42.96 1.09.97 1.94.01.75-.47 1.6-1.32 1.74-.25.04-.48.01-.7-.02-.09-.01-.18-.02-.27-.03-.22-.01-.51.01-.66.18-.2.23-.09.65.03 1.03.27.88.03 1.3-.22 1.5-.15.11-.31.16-.46.21-.09.03-.17.05-.25.09-.3.17-.36.64-.29 1.03.03.17.08.33.13.5.09.3.18.62.19.96.02.9-.66 1.76-1.61 2.06-.27.09-.56.13-.86.13z" fill="#ef6280"/></g><g><path d="m30.11 46.08c-.07.07-.13.12-.2.18-1.59 1.43-3.43 2.53-5.41 3.26.14-.44.1-.95-.14-1.36-.12-.21-.29-.43-.24-.67.05-.2.25-.33.42-.44.17-.12.34-.3.3-.51-.07-.36-.67-.33-.84-.65-.16-.3.14-.61.27-.93.14-.35.01-.77-.26-1.03.44-.24.88-.5 1.29-.79.17.07.34.16.51.25 1.18.61 2.36 1.23 3.54 1.84.29.16.61.34.72.65.02.08.03.14.04.2z" fill="#ef6280"/></g><g><path d="m34.6 39.24c-.01.04-.03.09-.04.12-.99 2.75-2.61 5.09-4.65 6.9-1.09-.27-2.11-.84-2.97-1.58-.56-.48-1.05-1.03-1.49-1.63 1.16-.84 2.18-1.9 2.97-3.15.11.12.26.22.41.27.31.1.68.04.93-.17.37-.29.57-.88 1.03-.89.54-.01.94.78 1.44.58.41-.16.38-.81.75-1.03.31-.18.69.03.97.24.21.14.43.29.65.34z" fill="#ef6280"/></g><g><path d="m29.56 37.81c-.03 0-.06 0-.08-.01-.13-.05-.19-.19-.15-.31.63-1.76.82-3.67.54-5.51-.02-.13.07-.26.21-.28s.26.07.28.21c.29 1.93.1 3.92-.56 5.75-.04.09-.14.15-.24.15z"/></g><g><path d="m13.62 44.36c-.04 0-.07-.01-.11-.02-5.47-2.63-8.05-8.93-6.01-14.65 1.14-3.17 3.58-5.71 6.7-6.98.13-.05.27.01.32.14s-.01.27-.14.32c-2.99 1.21-5.33 3.65-6.42 6.69-1.96 5.48.52 11.52 5.76 14.04.12.06.17.2.11.33-.04.08-.12.13-.21.13z"/></g><g><path d="m3.04 40.38c-.1 0-.19-.06-.23-.15-1.63-3.94-1.74-8.32-.3-12.33 1.84-5.13 6.06-9.12 11.29-10.67.13-.04.27.04.3.17.04.13-.04.27-.17.3-5.08 1.5-9.18 5.38-10.97 10.36-1.4 3.9-1.29 8.16.29 11.98.05.13-.01.27-.13.32-.02.02-.05.02-.08.02z"/></g><g><path d="m9.78 64.22c-.11 0-.21-.02-.32-.05l-3.03-1.08c-.24-.09-.43-.26-.54-.49s-.12-.48-.03-.72l1.28-3.59c.08-.24-.04-.5-.27-.58l-4.41-1.57c-.49-.18-.74-.72-.57-1.2l1.23-3.45c.16-.48.7-.74 1.2-.58l4.03 1.45c.13.05.19.19.15.31-.05.13-.19.19-.31.15l-4.03-1.45c-.24-.08-.49.04-.57.27l-1.24 3.45c-.08.23.04.49.27.58l4.41 1.57c.49.18.74.72.57 1.21l-1.28 3.6c-.04.11-.04.23.02.34.05.11.14.19.25.23l3.03 1.08c.24.09.5-.04.58-.27l1.29-3.59c.08-.23.25-.43.47-.53.23-.11.49-.12.73-.04l4.4 1.58c.24.08.49-.04.58-.28l1.24-3.45c.04-.11.04-.23-.02-.34-.05-.11-.14-.19-.26-.24l-4.4-1.57c-.49-.18-.74-.72-.57-1.2l1.12-3.14c.15-.39.55-.62.97-.55 2.89.52 5.88.25 8.66-.78 1.98-.73 3.77-1.81 5.33-3.21.06-.06.13-.11.19-.17 1.97-1.81 3.49-4.1 4.39-6.63l.04-.12c.95-2.72 1.18-5.64.66-8.45-.02-.13.06-.26.2-.29.13-.02.26.06.29.2.53 2.9.3 5.91-.68 8.7l-.04.12c-.93 2.6-2.5 4.96-4.52 6.82-.06.06-.13.12-.2.19-1.61 1.44-3.46 2.56-5.49 3.31-2.86 1.06-5.95 1.34-8.92.8-.18-.03-.36.07-.42.24l-1.12 3.13c-.08.23.04.49.27.58l4.4 1.57c.24.09.43.26.54.49s.12.48.03.71l-1.23 3.45c-.17.48-.71.74-1.2.57l-4.4-1.58c-.12-.04-.24-.04-.35.02-.11.05-.19.14-.22.25l-1.29 3.6c-.14.39-.51.62-.89.62z"/></g><g><path d="m63.98 10.34-10.32-1.51-5.11-.75c-.32-.05-.62.17-.67.5l-.58 3.51c-.05.33.16.63.49.69l6.53 1.08c.52.08.69.75.26 1.07l-5.94 4.47c-.33.25-.79.22-1.09-.07-2.4-2.24-5.48-3.79-8.97-4.31-4.27-.64-8.41.38-11.75 2.57-1.13.74-2.17 1.61-3.1 2.6-.42.46-.82.94-1.2 1.44-.41.53-.78 1.09-1.11 1.68-1.03 1.78-1.74 3.77-2.06 5.92-1.33 8.84 4.46 17.1 13.07 19 .37.08.76.16 1.14.22 9.22 1.39 17.83-4.97 19.21-14.2.52-3.48-.05-6.87-1.48-9.82-.01-.01-.01-.02-.01-.03-.18-.37-.08-.8.24-1.05l5.88-4.46c.42-.33 1.03.03.95.56l-.97 6.47c-.05.33.18.63.5.68l3.51.53c.32.05.63-.18.68-.5l1.23-8 1.17-7.59c.06-.35-.16-.66-.5-.7zm-39.37 19.67c.1-.72.28-1.41.51-2.07 0-.01 0-.01 0-.01.48-1.41 1.23-2.69 2.18-3.78.47-.55.99-1.05 1.56-1.5 1.35-1.07 2.93-1.85 4.65-2.24 1.37-.31 2.82-.38 4.29-.16 6.33.95 10.69 6.86 9.73 13.18-.95 6.33-6.84 10.69-13.18 9.74-6.32-.93-10.69-6.83-9.74-13.16z" fill="#509dff"/></g><g><path d="m52.79 34.24c-1.39 9.22-9.99 15.58-19.21 14.2-.39-.06-.77-.13-1.14-.22.08-.03.16-.07.24-.1.82-.41 1.43-1.13 2.07-1.78.65-.65 1.4-1.27 2.31-1.4 1.22-.17 2.46.6 3.67.35 1.15-.24 1.92-1.31 2.48-2.35.56-1.03 1.08-2.18 2.07-2.8.73-.45 1.62-.56 2.34-1.02 1.39-.89 1.73-2.78 1.58-4.43-.12-1.31-.41-2.82.49-3.78.31-.33.75-.56 1.04-.91.73-.88.27-2.5.2-3.55-.05-.7.09-1.41.39-2.04 1.41 2.96 1.99 6.35 1.47 9.83z" fill="#308cef"/></g><g><path d="m64.49 11.02-1.17 7.59c-.27.07-.56.09-.84.05-.65-.09-1.27-.56-1.42-1.2-.12-.48.01-.98.16-1.45.16-.46.34-.93.33-1.43-.01-.49-.29-1.01-.76-1.15-.48-.14-.97.16-1.42.37-.45.22-1.07.34-1.39-.05-.45-.53.15-1.35-.07-2.01-.16-.5-.75-.74-1.27-.71s-1.01.26-1.5.42c-.5.16-1.07.23-1.52-.03-.68-.4-.76-1.42-.36-2.1.11-.18.25-.35.41-.49l10.33 1.51c.32.04.54.35.49.68z" fill="#308cef"/></g><g><path d="m62.61 22.06c-.6 0-1.19-.17-1.68-.48-1.09-.7-1.65-2.11-1.34-3.36.04-.14.08-.29.13-.43.08-.23.15-.46.17-.68.03-.29-.08-.65-.33-.74-.32-.12-.71.21-.91.41l-.08.08c-.31.32-.67.69-1.18.72-.3.02-.59-.1-.82-.33-.31-.31-.5-.78-.48-1.24.01-.46.16-.87.31-1.28.07-.2.14-.4.2-.6.13-.51.12-1.17-.29-1.47-.38-.28-.89-.16-1.44-.03-.29.07-.59.13-.88.15-1.14.06-2.27-.85-2.44-1.99-.16-.86.25-1.79 1.01-2.3.11-.08.26-.05.34.07.08.11.05.26-.07.34-.59.4-.93 1.15-.82 1.83.14.9 1.06 1.63 1.93 1.57.25-.01.53-.08.8-.14.63-.14 1.28-.29 1.84.11.62.45.65 1.32.48 1.99-.06.22-.13.43-.21.64-.14.38-.27.75-.28 1.13-.01.31.13.67.34.87.14.13.29.19.45.19.31-.02.59-.3.85-.57l.08-.09c.49-.5 1-.69 1.44-.53.51.2.69.79.65 1.25-.02.28-.11.54-.19.79-.04.13-.09.26-.12.39-.26 1.05.21 2.24 1.13 2.83.46.3 1.04.43 1.62.39.15-.01.25.09.26.23s-.09.25-.23.26c-.08.01-.16.02-.24.02z" fill="#308cef"/></g><g><path d="m33.51 20.42c-1.71.39-3.3 1.16-4.65 2.24-1.62-.73-3.24-1.51-4.82-2.31-.1-.05-.2-.1-.3-.16.93-.99 1.97-1.86 3.1-2.6.18.57.81.99 1.4.86.41-.08.8-.37 1.18-.23.32.12.47.48.61.79s.37.65.71.65c.43.01.71-.53 1.14-.56.29-.02.54.2.71.42.27.37.52.77.92.9z" fill="#308cef"/></g><g><path d="m25.12 27.93c.01-.22.01-.44-.03-.67-.06-.37-.24-.75-.55-.96-.29-.2-.71-.29-.82-.63-.07-.2.02-.42.05-.63.04-.21.01-.47-.18-.56-.23-.11-.48.11-.74.09-.25-.02-.42-.27-.51-.5-.08-.24-.12-.5-.28-.69-.16-.2-.5-.28-.65-.08.33-.59.71-1.15 1.11-1.68.37.02.73.07 1.09.15 1.22.27 2.35.92 3.21 1.81.16.18.33.37.46.57-.93 1.1-1.67 2.37-2.16 3.78z" fill="#308cef"/></g><g><path d="m51.54 23.34 5.88-4.46c.42-.33 1.03.03.95.56l-.97 6.47c-.05.33.18.63.5.68l3.51.53c.32.05.63-.18.68-.5l2.4-15.59c.05-.33-.18-.64-.51-.69l-15.43-2.26c-.32-.05-.62.17-.67.5l-.58 3.51c-.05.33.16.63.49.69l6.53 1.08c.52.08.69.75.26 1.07l-5.94 4.47c-.33.25-.79.22-1.09-.07-2.4-2.24-5.48-3.79-8.97-4.31-4.27-.64-8.41.38-11.75 2.57-1.13.74-2.17 1.61-3.1 2.6-.42.46-.82.94-1.2 1.44-.41.53-.78 1.09-1.11 1.68-1.03 1.78-1.74 3.77-2.06 5.92-1.39 9.22 4.98 17.83 14.21 19.21 3.24.49 6.41.02 9.21-1.2m-6.08-27.09c.37.02.73.06 1.1.11 6.33.95 10.69 6.86 9.73 13.18-.95 6.33-6.84 10.69-13.18 9.74-5.57-.83-9.61-5.49-9.86-10.9" style="fill:none;stroke:#000;stroke-width:.75;stroke-linecap:round;stroke-linejoin:round;stroke-miterlimit:10"/></g><g><path d="m35.27 30.66-5.16 1.27c-.62-4.08-3.41-7.69-7.56-9.18-2.79-.99-5.71-.86-8.26.18l-.42-5.47c3.31-.98 6.96-.95 10.47.3 5.89 2.11 9.89 7.16 10.93 12.9z" fill="#fa778d"/></g><g><path d="m35.27 30.91c-.12 0-.22-.08-.24-.2-1.06-5.85-5.19-10.72-10.78-12.71-3.36-1.2-6.92-1.3-10.32-.3-.13.04-.27-.04-.3-.17-.04-.13.04-.27.17-.3 3.5-1.03 7.17-.93 10.62.3 5.75 2.05 10 7.07 11.09 13.08.02.13-.06.26-.2.29-.01 0-.02.01-.04.01z"/></g><g><path d="m30.11 32.18c-.12 0-.22-.09-.24-.21-.63-4.14-3.46-7.58-7.4-8.98-2.63-.94-5.5-.87-8.09.17-.13.05-.27-.01-.32-.14s.01-.27.14-.32c2.7-1.09 5.69-1.16 8.44-.18 4.1 1.47 7.06 5.06 7.72 9.37.02.13-.07.26-.21.28-.01.01-.03.01-.04.01z"/></g><g><path d="m30.13 47.87.74.44c-.28-.07-.54-.22-.74-.44z" fill="#308cef"/></g><g><path d="m57.97 13.45c-.45 0-.85.21-1.14.56s-.48.82-.48 1.35c0-1.06-.72-1.92-1.61-1.92.45 0 .85-.21 1.14-.56s.47-.82.47-1.35c0 .53.18 1 .48 1.35.29.35.7.57 1.14.57z" fill="#fff"/></g><g><path d="m33.48 39.48c-.45 0-.85.21-1.14.56s-.48.82-.48 1.35c0-1.06-.72-1.92-1.61-1.92.45 0 .85-.21 1.14-.56s.47-.82.47-1.35c0 .53.18 1 .48 1.35.28.35.69.57 1.14.57z" fill="#fff"/></g><g><path d="m12.25 22.93c-.45 0-.85.21-1.14.56s-.48.82-.48 1.35c0-1.06-.72-1.92-1.61-1.92.45 0 .85-.21 1.14-.56s.47-.82.47-1.35c0 .53.18 1 .48 1.35.28.36.69.57 1.14.57z" fill="#fff"/></g><g><path d="m58.75 15.85c-.27 0-.51.13-.68.33-.17.21-.28.49-.28.8 0-.63-.43-1.14-.96-1.14.27 0 .5-.13.68-.33.17-.21.28-.49.28-.8 0 .31.11.6.28.8.18.21.42.34.68.34z" fill="#fff"/></g><g><g><path d="m29.47 23.29c-.34.33-1.53-.33-2.82-1.27-1.29-.95-2.29-1.88-2.07-2.3.2-.42 1.66-.11 3.08.93 1.41 1.03 2.14 2.32 1.81 2.64z" fill="#fff"/></g><g><path d="m31.28 25.29c-.16.13-.55-.1-.88-.48s-.5-.8-.36-.94c.15-.14.57.05.91.45.36.4.49.85.33.97z" fill="#fff"/></g></g><g><g><path d="m25.54 42.09c.33-.34 1.6.37 3.03 1.32.73.5 1.31.94 1.75 1.26.43.32.74.55.72.79-.02.23-.45.42-1.13.34s-1.52-.46-2.28-.98c-1.58-1.05-2.42-2.4-2.09-2.73z" fill="#fff"/></g><g><path d="m23.56 39.98c.16-.13.57.11.93.52s.56.84.42.98-.59-.06-.97-.49c-.38-.42-.54-.89-.38-1.01z" fill="#fff"/></g></g><g><path d="m24.17 15.76c-.06.09-.18.12-.28.06l-5.57-3.43c-.8-.49-1.62-1-2.26-1.69-.93-.99-1.46-2.37-1.34-3.73.12-1.35.92-2.65 2.11-3.3.78-.42 1.71-.56 2.58-.39.81.16 1.51.6 2.06 1.21.05.06.15.04.17-.04.24-.78.7-1.48 1.37-1.96.72-.52 1.62-.78 2.5-.72 1.36.09 2.62.94 3.3 2.12.67 1.18.77 2.66.34 3.95-.3.89-.83 1.69-1.35 2.47-1.2 1.82-2.42 3.64-3.63 5.45z" fill="#fe515e"/></g></g></svg>