<svg height="512" viewBox="0 0 500 500" width="512" xmlns="http://www.w3.org/2000/svg"><g id="圖層_5" data-name="圖層 5"><path d="m462.33 218.83s-6.05 40.19 1 54.29c0 0 17.39 31.68-1.57 57.8 0 0-6.4 25.38 15.21 49.34 0 0 37.21 67.68-27 70.49l-61.27-110.86 23.94-77.18z" fill="#641b39"/><path d="m399.81 250.92s-52.8 32.7-25.75 72.38c0 0-10 16.59-28.36 16.59-24.49 0-26.68-17.36-26.68-17.36s6.16-46.62-11-44.38l61.28-32.66z" fill="#fde6cb"/><path d="m327.88 108.67s-38.37-27.51-67.4 6.16c0 0-27 32.34 23.92 44.77z" fill="#641b39"/><path d="m252.52 186.08c-29.82 92.07-1 101.32 55.51 92.07 27.85-4.56 34.76-4.86 62.33-10.6 26.31-5.48 63.25-.24 70.85-27.53a102.57 102.57 0 0 0 -71.31-126.32c-40.93-11.4-75.16-5-100 26.26-8.32 10.43-13.1 32.91-17.38 46.12z" fill="#fde6cb"/><path d="m286.13 115.94s-11.37 43.28 32.51 64.2c0 0-7.62-22.78-4.46-37.51 0 0-.5 45 32.8 66.3s16.32 65.3 30.79 70.11c18 6 59.62-4.21 71.47-21 19.52-27.65 24.44-85-26.79-136.74-15.72-15.86-36-26.66-58.08-29.81-21.6-3.08-48 .17-67.13 25.49" fill="#641b39"/><path d="m388.63 222.72a23.43 23.43 0 0 1 -21.51 25.19c-12.9 1-32.53-7.82-33.55-20.71s17-25 29.87-26a23.44 23.44 0 0 1 25.19 21.52z" fill="#fde6cb"/><path d="m265.19 235.61a3.38 3.38 0 0 1 -.41.24l-.49.25-.36.17c.37-.17 0 0-.05 0a13.37 13.37 0 0 1 -4.15.91c-5.33.21-9.71-3.08-13-7-1.28-1.53-3.47.67-2.19 2.19 3.75 4.47 8.94 8.06 15 7.91a14.36 14.36 0 0 0 7.22-2c1.67-1.08.11-3.77-1.57-2.68z" fill="#9d1f49"/><path d="m241.6 197.92a7.27 7.27 0 0 0 14 3.9c1.07-3.87.78-14.66-3.09-15.74.01 0-9.83 7.97-10.91 11.84z" fill="#fde6cb"/><path d="m278.51 155.57c12.82 1.28 24.12 11.4 26.46 24.15.35 1.9 3.38 1.69 3-.24-2.57-14-14.68-25.48-28.94-26.91-1.93-.19-2.5 2.8-.55 3z" fill="#40220f"/><ellipse cx="289.63" cy="218.83" fill="#f8c8b9" rx="13.73" ry="22.29" transform="matrix(.268 -.963 .963 .268 1.14 439.17)"/><path d="m382.27 280.13s-6.28-.28-6 6.67c0 0-20.79-11-17.45-39.4z" fill="#641b39"/><path d="m268.6 181.74s2.46 22.47 25.74 17.36c0 0 .58-1.3-.89-1.2 0 0-15.93 1.82-21.74-16.66 0 0-.13-1.18-1.67-1.16a1.57 1.57 0 0 0 -1.44 1.66z" fill="#40220f"/><path d="m319 322.53 55 .77s85.85 15.16 75 149.29h-190.81s-3.95-137.97 60.81-150.06z" fill="#e2ebff"/><path d="m94.12 286.8 55 .94s37.14 5.26 58.17 34.79c18.71 26.3 21.93 71.84 16.81 150.06h-209.17s-10.65-95.59 15.37-150.06c8.76-18.32 47.51-31.97 63.82-35.73z" fill="#b7bade"/><path d="m358.82 247.4a191.6 191.6 0 0 1 -3.23 21.54c-2.46 11.72-6.6 25.32-22.06 45.06 0 0-56.17 91.64 12.85 132.52 0 0 9.8 10.59 1.34 18.33 0 0 74.86-29 63.47-121.45 0 0-4.27-67.25 16.89-76.3z" fill="#641b39"/><path d="m55.4 96.92c-14.11-30.58 6-42.23 20.72-53.29s42.66-14.76 60.33-9.63c6.06 1.77 11.85 4.5 18.06 5.62 11 2 22.29-1.27 33.5-1.85s24.18 2.78 28.9 13c2.5 5.39-1.08 12.77 2.51 17.51 39 51.53-.44 50.93-7.5 71.41" fill="#641b39"/><path d="m81.32 216.09s21 37.32 12.5 72.91c0 0 13.71 17.26 32 17.26 24.36 0 26.54-17.26 26.54-17.26s-6.83-25.74 10.2-22.34l-60.23-54.31z" fill="#f5c898"/><path d="m221.23 182.25c1.15 96-38.57 99.32-88.9 84.41-27-8-31-26.26-51-44s-27.78-44.48-25.57-72.57c4.41-56.2 24.24-79.91 80.44-75.5 42.14 3.3 72 20.92 84.54 58.64 4.19 12.58.33 35.21.49 49.02z" fill="#f5c898"/><path d="m206 73.12c-44.75-29-108.2-10-108.2-10-32.48 6.54-42.4 19.88-42.4 33.8 0 0-37.08 9.31-21.1 83.27 9.12 42.21 38.18 46.25 38.18 46.25 33.59 0 51.41-83.29 51.41-83.29 46.05 3 38.69-23.37 38.69-23.37s53.5 12.54 45.72-22.26c0 0 13.25-14.36-2.3-24.4z" fill="#641b39"/><path d="m81.54 170.1a23.3 23.3 0 0 0 11.51 30.9c11.71 5.34 33.07 3.78 38.41-7.92s-7.35-29.12-19.05-34.47a23.3 23.3 0 0 0 -30.87 11.49z" fill="#f5c898"/><path d="m190 226a14.42 14.42 0 0 0 6.24 4.54c5.63 2.24 11.75.56 16.8-2.35a1.54 1.54 0 0 0 -1.56-2.66c-4.35 2.51-9.57 4-14.42 2a13.13 13.13 0 0 1 -2-1.08 8.12 8.12 0 0 1 -1.32-1 11.79 11.79 0 0 1 -.94-.93c-.14-.15-.61-.76-.14-.13a1.59 1.59 0 0 0 -2.11-.55 1.55 1.55 0 0 0 -.55 2.16z" fill="#9d1f49"/><path d="m227.4 197a7.23 7.23 0 0 1 -14.4-1.09c.31-4 4.27-14 8.25-13.66-.02 0 6.46 10.81 6.15 14.75z" fill="#f5c898"/><path d="m66.15 224.51a104.37 104.37 0 0 1 15.3 6.35 5.73 5.73 0 0 0 8.29-4.46 28.7 28.7 0 0 1 1.2-6c2-5.4 9.63-9.4 10.67-17z" fill="#641b39"/><ellipse cx="175.67" cy="196.53" fill="#f5b08b" rx="10.33" ry="22.18" transform="matrix(.078 -.997 .997 .078 -33.99 356.3)"/><path d="m174.83 150.57s14.59-16.48 35.85-11.72c.34.07 1.19.46 1.24.81.18 1.23-1.09 4.11-16.07 5.08 0 0-12.13.8-19.93 7.23a1.92 1.92 0 0 1 -.94.43c-.65-.06-1.29-.4-.15-1.83z" fill="#40220f"/><path d="m209.81 166.87s-11.74 17.84-29.12 3.52c0 0 .07-1.34 1.26-.63 0 0 12.62 8.39 25.46-4.66a1.38 1.38 0 0 1 1.9-.25 1.48 1.48 0 0 1 .5 2.02z" fill="#40220f"/><path d="m118.56 162.63s25.81 12 20.49-19.15l-12.94-30.89z" fill="#641b39"/><path d="m55.4 74.07c-13 3.74-18.37.05-30.24 6.58-6.43 3.53-9.76 10.87-11.54 18-2.28 9.1-2.16 20.1 4.92 26.25 2 1.7 4.42 3 5.63 5.29a11.09 11.09 0 0 1 .79 6.18c-.58 6.67-1 13.43-2.92 19.85-8.35 28.36 2.37 57 22.35 56.56 0 0 7.63.55 11 5.29l25.92-86.78z" fill="#641b39"/><g opacity=".2"><path d="m350.85 98.25s19.41 34.33 67.3 35.8c0 0-40.77 13.53-88.44-31.1 0 .05 11.03-6.06 21.14-4.7z" fill="#fff"/></g><g opacity=".2"><path d="m145 48s-19.4 34.33-67.29 35.8c0 0 40.76 13.53 88.44-31.1.01-.03-11.03-6.1-21.15-4.7z" fill="#fff"/></g><path d="m253.73 89.91s-31.85-62.49-6.37-62.49c0 0 18.5-1.36 18.5 20.94 0 0 14-25.13 31.44-12.7 0 0 24.52 10.23-43.57 54.25z" fill="#ff578b"/></g></svg>