<svg enable-background="new 0 0 512 512" height="512" viewBox="0 0 512 512" width="512" xmlns="http://www.w3.org/2000/svg" xmlns:xlink="http://www.w3.org/1999/xlink"><linearGradient id="SVGID_1_" gradientUnits="userSpaceOnUse" x1="124.759" x2="392.343" y1="396.304" y2="128.72"><stop offset="0" stop-color="#da1467"/><stop offset="1" stop-color="#ff992e"/></linearGradient><g id="_x33_1_Burning_Heart"><path d="m142.933 220.386c6.971-11.593-1.443-38.2-2.346-50.661-2.399-28.903 12.105-59.353 35.303-73.965 3.694-2.351 8.698.656 8.105 5.279-2.026 14.505-2.933 26.344 3.84 37.489 2.773-20.371 7.519-47.621 44.955-72.578 38.316-25.62 17.661-49.073 23.411-62.659 1.518-3.502 5.824-4.299 8.479-1.866 38.396 34.663 33.276 54.767 28.317 74.231-4.586 17.865-8.959 34.823 22.451 67.459v-.8c-.64-14.985-1.387-31.996 21.544-42.341 3.373-1.574 7.175.708 7.519 4.373 2.848 31.848 26.486 55.156 46.981 81.856 20.691 27.037 28.21 60.527 21.544 91.882-15.092-35.355-50.234-60.259-91.083-60.259-24.584 0-48.101 9.119-66.125 25.384-18.131-16.478-41.222-25.384-66.179-25.384-40.475 0-75.351 24.477-90.603 59.353-6.932-32.316.906-65.272 23.411-98.548 1.226-1.867 3.519-2.773 5.653-2.24 2.186.533 3.786 2.347 4.053 4.586 1.426 11.997.311 28.09 10.77 39.409zm179.019 8.106c-25.65 0-49.381 10.826-66.125 29.863-16.798-19.037-40.529-29.863-66.179-29.863-48.688 0-88.256 39.622-88.256 88.309 0 90.603 145.263 190.058 151.449 194.271 1.812 1.172 4.048 1.245 5.973 0 6.186-4.212 151.449-103.668 151.449-194.271-.002-48.687-39.624-88.309-88.311-88.309z" fill="url(#SVGID_1_)"/></g></svg>